<?xml version="1.0" encoding="UTF-8"?>
<svg xmlns="http://www.w3.org/2000/svg" xmlns:xlink="http://www.w3.org/1999/xlink" width="76px" height="20px" viewBox="0 0 76 20" version="1.1">
<defs>
<clipPath id="clip1">
  <path d="M 0.8125 0.78125 L 16.542969 0.78125 L 16.542969 19.21875 L 0.8125 19.21875 Z M 0.8125 0.78125 "/>
</clipPath>
<clipPath id="clip2">
  <path d="M 14.851562 5.46875 C 15.078125 4.035156 14.851562 3.058594 14.074219 2.175781 C 13.222656 1.203125 11.683594 0.785156 9.714844 0.785156 L 4.003906 0.785156 C 3.601562 0.785156 3.261719 1.078125 3.199219 1.476562 L 0.8125 16.605469 C 0.789062 16.746094 0.832031 16.890625 0.925781 17 C 1.015625 17.109375 1.152344 17.171875 1.296875 17.171875 L 4.832031 17.171875 L 4.585938 18.722656 C 4.566406 18.847656 4.605469 18.972656 4.6875 19.070312 C 4.769531 19.164062 4.890625 19.21875 5.015625 19.21875 L 7.988281 19.21875 C 8.339844 19.21875 8.640625 18.960938 8.695312 18.613281 L 8.726562 18.457031 L 9.285156 14.894531 L 9.320312 14.699219 C 9.375 14.347656 9.675781 14.089844 10.027344 14.089844 L 10.46875 14.089844 C 13.347656 14.089844 15.605469 12.917969 16.261719 9.523438 C 16.539062 8.105469 16.394531 6.921875 15.667969 6.085938 C 15.4375 5.828125 15.160156 5.617188 14.855469 5.460938 "/>
</clipPath>
<clipPath id="clip3">
  <path d="M 0.8125 0.78125 L 15 0.78125 L 15 18 L 0.8125 18 Z M 0.8125 0.78125 "/>
</clipPath>
<clipPath id="clip4">
  <path d="M 6.667969 5.484375 C 6.722656 5.136719 7.023438 4.878906 7.375 4.878906 L 11.855469 4.878906 C 12.347656 4.875 12.84375 4.910156 13.332031 4.988281 C 13.460938 5.007812 13.585938 5.03125 13.707031 5.058594 C 13.832031 5.085938 13.949219 5.117188 14.0625 5.148438 L 14.234375 5.203125 C 14.449219 5.273438 14.65625 5.363281 14.855469 5.464844 C 15.082031 4.03125 14.855469 3.054688 14.078125 2.171875 C 13.226562 1.199219 11.6875 0.78125 9.71875 0.78125 L 4.003906 0.78125 C 3.601562 0.78125 3.261719 1.074219 3.199219 1.472656 L 0.8125 16.605469 C 0.789062 16.746094 0.832031 16.890625 0.925781 17 C 1.015625 17.109375 1.152344 17.171875 1.296875 17.171875 L 4.832031 17.171875 L 6.667969 5.484375 "/>
</clipPath>
<clipPath id="clip5">
  <path d="M 0.8125 0.78125 L 15 0.78125 L 15 18 L 0.8125 18 Z M 0.8125 0.78125 "/>
</clipPath>
<clipPath id="clip6">
  <path d="M 14.902344 5.46875 C 15.125 4.03125 14.902344 3.054688 14.121094 2.171875 C 13.269531 1.195312 11.722656 0.78125 9.75 0.78125 L 4.015625 0.78125 C 3.613281 0.777344 3.269531 1.074219 3.207031 1.472656 L 0.8125 16.617188 C 0.789062 16.761719 0.832031 16.90625 0.925781 17.015625 C 1.019531 17.125 1.15625 17.1875 1.296875 17.1875 L 4.839844 17.1875 L 5.726562 11.546875 L 5.699219 11.722656 C 5.761719 11.324219 6.105469 11.03125 6.507812 11.03125 L 8.191406 11.03125 C 11.492188 11.03125 14.082031 9.6875 14.835938 5.804688 C 14.859375 5.691406 14.878906 5.578125 14.894531 5.46875 "/>
</clipPath>
<clipPath id="clip7">
  <path d="M 26 2 L 76 2 L 76 16 L 26 16 Z M 26 2 "/>
</clipPath>
<clipPath id="clip8">
  <path d="M 71.867188 13.230469 C 72.503906 13.253906 73.136719 13.132812 73.726562 12.878906 C 74.175781 12.6875 74.558594 12.367188 74.828125 11.957031 C 75.0625 11.589844 75.1875 11.160156 75.1875 10.722656 C 75.195312 10.21875 75.023438 9.726562 74.703125 9.335938 C 74.351562 8.921875 73.882812 8.621094 73.359375 8.476562 C 73.824219 8.335938 74.238281 8.058594 74.546875 7.679688 C 74.832031 7.320312 74.984375 6.867188 74.976562 6.40625 C 74.980469 5.980469 74.851562 5.5625 74.609375 5.210938 C 74.351562 4.84375 73.992188 4.554688 73.578125 4.382812 C 73.085938 4.171875 72.554688 4.070312 72.019531 4.082031 C 71.46875 4.074219 70.917969 4.179688 70.40625 4.394531 C 69.929688 4.59375 69.511719 4.914062 69.1875 5.316406 L 70.023438 6.339844 C 70.265625 6.042969 70.566406 5.796875 70.90625 5.617188 C 71.230469 5.457031 71.582031 5.378906 71.941406 5.382812 C 72.3125 5.363281 72.679688 5.480469 72.972656 5.714844 C 73.222656 5.925781 73.367188 6.238281 73.359375 6.566406 C 73.363281 6.945312 73.164062 7.304688 72.839844 7.503906 C 72.4375 7.757812 71.96875 7.882812 71.492188 7.863281 L 71.492188 9.175781 C 72.125 9.175781 72.632812 9.308594 73.007812 9.574219 C 73.363281 9.804688 73.574219 10.199219 73.570312 10.625 C 73.574219 10.988281 73.410156 11.335938 73.125 11.5625 C 72.828125 11.808594 72.410156 11.933594 71.863281 11.933594 C 71.066406 11.925781 70.296875 11.644531 69.683594 11.136719 L 69.109375 12.34375 C 69.84375 12.933594 70.761719 13.230469 71.867188 13.230469 Z M 58.574219 13.085938 L 58.574219 9.195312 C 58.558594 8.691406 58.738281 8.199219 59.074219 7.828125 C 59.398438 7.46875 59.863281 7.269531 60.347656 7.28125 C 60.792969 7.257812 61.230469 7.4375 61.53125 7.769531 C 61.816406 8.089844 61.960938 8.53125 61.960938 9.089844 L 61.960938 13.085938 L 63.457031 13.085938 L 63.457031 8.691406 C 63.457031 7.875 63.222656 7.214844 62.75 6.707031 C 62.277344 6.195312 61.636719 5.941406 60.824219 5.9375 C 59.894531 5.898438 59.023438 6.394531 58.574219 7.210938 L 58.574219 6.117188 L 57.078125 6.117188 L 57.078125 13.078125 Z M 55.398438 13.085938 L 55.398438 6.128906 L 53.902344 6.128906 L 53.902344 13.085938 Z M 54.640625 4.625 C 54.894531 4.632812 55.140625 4.53125 55.316406 4.347656 C 55.496094 4.171875 55.59375 3.933594 55.59375 3.683594 C 55.59375 3.433594 55.496094 3.195312 55.316406 3.019531 C 55.140625 2.835938 54.894531 2.734375 54.640625 2.742188 C 54.125 2.742188 53.703125 3.164062 53.703125 3.683594 C 53.703125 4.203125 54.125 4.625 54.640625 4.625 Z M 43.066406 15.742188 C 43.453125 15.753906 43.835938 15.675781 44.191406 15.515625 C 44.546875 15.332031 44.855469 15.054688 45.078125 14.71875 C 45.417969 14.210938 45.699219 13.660156 45.914062 13.085938 L 48.730469 6.128906 L 47.117188 6.128906 L 45.210938 11.664062 L 42.933594 6.128906 L 41.28125 6.128906 L 44.507812 13.085938 C 44.277344 13.625 44.058594 13.988281 43.847656 14.179688 C 43.621094 14.371094 43.332031 14.46875 43.039062 14.457031 C 42.621094 14.453125 42.207031 14.363281 41.820312 14.191406 L 41.386719 15.375 C 41.914062 15.617188 42.484375 15.742188 43.066406 15.742188 Z M 37.191406 12.078125 C 36.859375 12.097656 36.53125 12.011719 36.257812 11.832031 C 36.042969 11.667969 35.925781 11.414062 35.9375 11.148438 C 35.9375 10.660156 36.210938 10.339844 36.75 10.191406 C 37.292969 10.042969 38.085938 9.96875 39.128906 9.980469 L 39.128906 10.683594 C 39.0625 11.089844 38.832031 11.457031 38.492188 11.691406 C 38.109375 11.957031 37.65625 12.09375 37.191406 12.078125 Z M 36.792969 13.257812 C 37.28125 13.265625 37.765625 13.160156 38.210938 12.953125 C 38.613281 12.765625 38.960938 12.484375 39.230469 12.128906 L 39.398438 13.085938 L 40.621094 13.085938 L 40.621094 8.929688 C 40.621094 8.019531 40.351562 7.292969 39.8125 6.75 C 39.273438 6.210938 38.472656 5.9375 37.410156 5.9375 C 36.03125 5.9375 35.136719 6.382812 34.722656 7.277344 L 35.65625 8.007812 C 35.777344 7.726562 35.996094 7.496094 36.265625 7.355469 C 36.574219 7.214844 36.90625 7.148438 37.246094 7.160156 C 37.867188 7.160156 38.335938 7.316406 38.644531 7.628906 C 38.957031 7.941406 39.113281 8.375 39.113281 8.933594 C 38.214844 8.925781 37.320312 8.996094 36.433594 9.148438 C 35.765625 9.28125 35.269531 9.515625 34.945312 9.851562 C 34.617188 10.1875 34.457031 10.660156 34.453125 11.273438 C 34.453125 11.925781 34.671875 12.421875 35.109375 12.753906 C 35.597656 13.105469 36.191406 13.285156 36.792969 13.257812 Z M 30.246094 8.398438 L 28.390625 8.398438 L 28.390625 5.15625 L 30.246094 5.15625 C 31.585938 5.15625 32.257812 5.695312 32.253906 6.777344 C 32.28125 7.238281 32.085938 7.6875 31.726562 7.980469 C 31.375 8.257812 30.878906 8.398438 30.246094 8.398438 Z M 28.390625 13.085938 L 28.390625 9.765625 L 30.378906 9.765625 C 31.445312 9.765625 32.300781 9.507812 32.945312 8.984375 C 33.585938 8.464844 33.910156 7.726562 33.910156 6.769531 C 33.910156 5.792969 33.601562 5.054688 32.984375 4.550781 C 32.367188 4.046875 31.488281 3.792969 30.347656 3.792969 L 26.800781 3.792969 L 26.800781 13.089844 Z M 28.390625 13.085938 "/>
</clipPath>
</defs>
<g id="surface1">
<g clip-path="url(#clip1)" clip-rule="nonzero">
<g clip-path="url(#clip2)" clip-rule="evenodd">
<path style=" stroke:none;fill-rule:nonzero;fill:rgb(15.686275%,56.470588%,76.470588%);fill-opacity:1;" d="M 0.0351562 0 L 17.171875 0 L 17.171875 20 L 0.0351562 20 Z M 0.0351562 0 "/>
</g>
</g>
<g clip-path="url(#clip3)" clip-rule="nonzero">
<g clip-path="url(#clip4)" clip-rule="evenodd">
<path style=" stroke:none;fill-rule:nonzero;fill:rgb(15.686275%,20.392157%,41.568627%);fill-opacity:1;" d="M 0.0351562 0 L 15.710938 0 L 15.710938 17.953125 L 0.0351562 17.953125 Z M 0.0351562 0 "/>
</g>
</g>
<g clip-path="url(#clip5)" clip-rule="nonzero">
<g clip-path="url(#clip6)" clip-rule="evenodd">
<path style=" stroke:none;fill-rule:nonzero;fill:rgb(12.54902%,15.294118%,30.980392%);fill-opacity:1;" d="M 0.0351562 0 L 15.761719 0 L 15.761719 17.96875 L 0.0351562 17.96875 Z M 0.0351562 0 "/>
</g>
</g>
<g clip-path="url(#clip7)" clip-rule="nonzero">
<g clip-path="url(#clip8)" clip-rule="nonzero">
<path style=" stroke:none;fill-rule:nonzero;fill:rgb(12.54902%,15.294118%,30.980392%);fill-opacity:1;" d="M 26.023438 1.960938 L 75.964844 1.960938 L 75.964844 16.523438 L 26.023438 16.523438 Z M 26.023438 1.960938 "/>
</g>
</g>
</g>
</svg>
