<?xml version="1.0" encoding="UTF-8"?>
<svg xmlns="http://www.w3.org/2000/svg" xmlns:xlink="http://www.w3.org/1999/xlink" width="101px" height="20px" viewBox="0 0 100 20" version="1.1">
<g id="surface1">
<path style=" stroke:none;fill-rule:nonzero;fill:rgb(11.372549%,11.372549%,10.588235%);fill-opacity:1;" d="M 26.851562 0.386719 C 24.136719 0.386719 22.578125 2.457031 22.578125 6.066406 C 22.578125 9.648438 24.136719 11.703125 26.851562 11.703125 C 29.609375 11.703125 31.125 9.699219 31.125 6.066406 C 31.125 2.457031 29.566406 0.386719 26.851562 0.386719 Z M 26.851562 9.925781 C 24.789062 9.925781 24.480469 7.5 24.480469 6.050781 C 24.480469 4.597656 24.789062 2.160156 26.851562 2.160156 C 28.917969 2.160156 29.222656 4.597656 29.222656 6.050781 C 29.222656 7.820312 28.8125 9.925781 26.851562 9.925781 Z M 26.851562 9.925781 "/>
<path style=" stroke:none;fill-rule:nonzero;fill:rgb(11.372549%,11.372549%,10.588235%);fill-opacity:1;" d="M 33.761719 5.988281 C 35.289062 5.988281 36.160156 4.972656 36.160156 3.203125 C 36.160156 1.414062 35.289062 0.386719 33.761719 0.386719 C 32.238281 0.386719 31.367188 1.414062 31.367188 3.203125 C 31.367188 4.972656 32.238281 5.988281 33.761719 5.988281 Z M 33.761719 1.882812 C 34.285156 1.882812 34.550781 2.320312 34.550781 3.1875 C 34.550781 4.050781 34.285156 4.488281 33.761719 4.488281 C 33.230469 4.488281 32.960938 4.050781 32.960938 3.1875 C 32.960938 2.320312 33.230469 1.882812 33.761719 1.882812 Z M 33.761719 1.882812 "/>
<path style=" stroke:none;fill-rule:nonzero;fill:rgb(11.372549%,11.372549%,10.588235%);fill-opacity:1;" d="M 39.226562 6.039062 C 37.703125 6.039062 36.828125 7.066406 36.828125 8.855469 C 36.828125 10.625 37.703125 11.640625 39.226562 11.640625 C 40.75 11.640625 41.625 10.625 41.625 8.855469 C 41.625 7.066406 40.75 6.039062 39.226562 6.039062 Z M 39.242188 10.140625 C 38.707031 10.140625 38.4375 9.703125 38.4375 8.839844 C 38.4375 7.972656 38.707031 7.535156 39.242188 7.535156 C 39.761719 7.535156 40.027344 7.972656 40.027344 8.839844 C 40.027344 9.703125 39.761719 10.140625 39.242188 10.140625 Z M 39.242188 10.140625 "/>
<path style=" stroke:none;fill-rule:nonzero;fill:rgb(11.372549%,11.372549%,10.588235%);fill-opacity:1;" d="M 39.558594 0.511719 L 31.304688 11.53125 L 33.429688 11.53125 L 41.683594 0.511719 Z M 39.558594 0.511719 "/>
<path style=" stroke:none;fill-rule:nonzero;fill:rgb(11.372549%,11.372549%,10.588235%);fill-opacity:1;" d="M 53.925781 0.046875 L 51.945312 0.046875 L 47.265625 11.53125 L 49.234375 11.53125 L 50.390625 8.664062 L 55.496094 8.664062 L 56.652344 11.53125 L 58.621094 11.53125 Z M 51.097656 6.921875 L 52.945312 2.355469 L 54.789062 6.921875 Z M 51.097656 6.921875 "/>
<path style=" stroke:none;fill-rule:nonzero;fill:rgb(11.372549%,11.372549%,10.588235%);fill-opacity:1;" d="M 63.429688 0.046875 L 59.355469 0.046875 L 59.355469 11.53125 L 61.226562 11.53125 L 61.226562 7.320312 L 63.335938 7.320312 C 66.101562 7.320312 67.691406 5.980469 67.691406 3.652344 C 67.691406 1.328125 66.175781 0.046875 63.429688 0.046875 Z M 61.226562 1.789062 L 63.367188 1.789062 C 64.984375 1.789062 65.773438 2.410156 65.773438 3.683594 C 65.773438 4.953125 64.964844 5.574219 63.308594 5.574219 L 61.226562 5.574219 Z M 61.226562 1.789062 "/>
<path style=" stroke:none;fill-rule:nonzero;fill:rgb(11.372549%,11.372549%,10.588235%);fill-opacity:1;" d="M 74.140625 6.882812 C 75.695312 6.40625 76.671875 5.117188 76.671875 3.480469 C 76.671875 1.332031 75.128906 0.046875 72.539062 0.046875 L 68.355469 0.046875 L 68.355469 11.53125 L 70.226562 11.53125 L 70.226562 7.070312 L 72.011719 7.070312 L 75.441406 11.53125 L 77.714844 11.53125 Z M 74.753906 3.449219 C 74.753906 4.671875 74.015625 5.34375 72.675781 5.34375 L 70.226562 5.34375 L 70.226562 1.789062 L 72.585938 1.789062 C 73.394531 1.789062 74.753906 2.003906 74.753906 3.449219 Z M 74.753906 3.449219 "/>
<path style=" stroke:none;fill-rule:nonzero;fill:rgb(0%,0%,0%);fill-opacity:1;" d="M 5.339844 15.640625 L 5.339844 17.425781 L 7.703125 17.425781 L 7.703125 17.960938 L 5.339844 17.960938 L 5.339844 20.152344 L 4.769531 20.152344 L 4.769531 15.105469 L 7.882812 15.105469 L 7.882812 15.640625 Z M 5.339844 15.640625 "/>
<path style=" stroke:none;fill-rule:nonzero;fill:rgb(0%,0%,0%);fill-opacity:1;" d="M 13.378906 17.945312 C 13.378906 19.4375 12.554688 20.222656 11.316406 20.222656 C 10.105469 20.222656 9.265625 19.445312 9.265625 17.996094 L 9.265625 15.105469 L 9.839844 15.105469 L 9.839844 17.945312 C 9.839844 19.058594 10.390625 19.699219 11.335938 19.699219 C 12.238281 19.699219 12.804688 19.121094 12.804688 17.984375 L 12.804688 15.105469 L 13.378906 15.105469 Z M 13.378906 17.945312 "/>
<path style=" stroke:none;fill-rule:nonzero;fill:rgb(0%,0%,0%);fill-opacity:1;" d="M 15.769531 18.074219 L 15.769531 20.152344 L 15.195312 20.152344 L 15.195312 15.105469 L 16.996094 15.105469 C 18.121094 15.105469 18.773438 15.632812 18.773438 16.554688 C 18.773438 17.390625 18.191406 17.917969 17.480469 18.046875 L 19.101562 20.152344 L 18.417969 20.152344 L 16.824219 18.074219 Z M 17.058594 17.570312 C 17.761719 17.570312 18.175781 17.1875 18.175781 16.539062 C 18.175781 15.957031 17.746094 15.617188 17.015625 15.617188 L 15.769531 15.617188 L 15.769531 17.570312 Z M 17.058594 17.570312 "/>
<path style=" stroke:none;fill-rule:nonzero;fill:rgb(0%,0%,0%);fill-opacity:1;" d="M 24.558594 20.152344 L 24.09375 20.152344 L 20.976562 15.992188 L 20.976562 20.152344 L 20.417969 20.152344 L 20.417969 15.105469 L 20.957031 15.105469 L 24 19.164062 L 24 15.105469 L 24.558594 15.105469 Z M 24.558594 20.152344 "/>
<path style=" stroke:none;fill-rule:nonzero;fill:rgb(0%,0%,0%);fill-opacity:1;" d="M 26.429688 20.152344 L 26.429688 15.105469 L 27.003906 15.105469 L 27.003906 20.152344 Z M 26.429688 20.152344 "/>
<path style=" stroke:none;fill-rule:nonzero;fill:rgb(0%,0%,0%);fill-opacity:1;" d="M 30.390625 15.640625 L 30.390625 20.152344 L 29.808594 20.152344 L 29.808594 15.640625 L 28.261719 15.640625 L 28.261719 15.105469 L 31.9375 15.105469 L 31.9375 15.640625 Z M 30.390625 15.640625 "/>
<path style=" stroke:none;fill-rule:nonzero;fill:rgb(0%,0%,0%);fill-opacity:1;" d="M 37.253906 17.945312 C 37.253906 19.4375 36.429688 20.222656 35.1875 20.222656 C 33.976562 20.222656 33.140625 19.445312 33.140625 17.996094 L 33.140625 15.105469 L 33.714844 15.105469 L 33.714844 17.945312 C 33.714844 19.058594 34.265625 19.699219 35.210938 19.699219 C 36.113281 19.699219 36.679688 19.121094 36.679688 17.984375 L 36.679688 15.105469 L 37.253906 15.105469 Z M 37.253906 17.945312 "/>
<path style=" stroke:none;fill-rule:nonzero;fill:rgb(0%,0%,0%);fill-opacity:1;" d="M 39.644531 18.074219 L 39.644531 20.152344 L 39.070312 20.152344 L 39.070312 15.105469 L 40.871094 15.105469 C 41.996094 15.105469 42.644531 15.632812 42.644531 16.554688 C 42.644531 17.390625 42.066406 17.917969 41.355469 18.046875 L 42.976562 20.152344 L 42.292969 20.152344 L 40.699219 18.074219 Z M 40.933594 17.570312 C 41.636719 17.570312 42.050781 17.1875 42.050781 16.539062 C 42.050781 15.957031 41.621094 15.617188 40.890625 15.617188 L 39.644531 15.617188 L 39.644531 17.570312 Z M 40.933594 17.570312 "/>
<path style=" stroke:none;fill-rule:nonzero;fill:rgb(0%,0%,0%);fill-opacity:1;" d="M 44.867188 15.640625 L 44.867188 17.339844 L 47.230469 17.339844 L 47.230469 17.875 L 44.867188 17.875 L 44.867188 19.617188 L 47.558594 19.617188 L 47.558594 20.152344 L 44.292969 20.152344 L 44.292969 15.105469 L 47.410156 15.105469 L 47.410156 15.640625 Z M 44.867188 15.640625 "/>
<path style=" stroke:none;fill-rule:nonzero;fill:rgb(0%,0%,0%);fill-opacity:1;" d="M 53.039062 15.640625 L 53.039062 17.425781 L 55.402344 17.425781 L 55.402344 17.960938 L 53.039062 17.960938 L 53.039062 20.152344 L 52.464844 20.152344 L 52.464844 15.105469 L 55.582031 15.105469 L 55.582031 15.640625 Z M 53.039062 15.640625 "/>
<path style=" stroke:none;fill-rule:nonzero;fill:rgb(0%,0%,0%);fill-opacity:1;" d="M 57.023438 20.152344 L 57.023438 15.105469 L 57.59375 15.105469 L 57.59375 20.152344 Z M 57.023438 20.152344 "/>
<path style=" stroke:none;fill-rule:nonzero;fill:rgb(0%,0%,0%);fill-opacity:1;" d="M 63.605469 20.152344 L 63.140625 20.152344 L 60.023438 15.992188 L 60.023438 20.152344 L 59.464844 20.152344 L 59.464844 15.105469 L 60.003906 15.105469 L 63.046875 19.164062 L 63.046875 15.105469 L 63.605469 15.105469 Z M 63.605469 20.152344 "/>
<path style=" stroke:none;fill-rule:nonzero;fill:rgb(0%,0%,0%);fill-opacity:1;" d="M 66.046875 18.816406 L 65.511719 20.152344 L 64.914062 20.152344 L 66.972656 15.105469 L 67.695312 15.105469 L 69.757812 20.152344 L 69.164062 20.152344 L 68.625 18.816406 Z M 67.335938 15.632812 L 66.253906 18.304688 L 68.417969 18.304688 Z M 67.335938 15.632812 "/>
<path style=" stroke:none;fill-rule:nonzero;fill:rgb(0%,0%,0%);fill-opacity:1;" d="M 75.210938 20.152344 L 74.742188 20.152344 L 71.628906 15.992188 L 71.628906 20.152344 L 71.070312 20.152344 L 71.070312 15.105469 L 71.605469 15.105469 L 74.652344 19.164062 L 74.652344 15.105469 L 75.210938 15.105469 Z M 75.210938 20.152344 "/>
<path style=" stroke:none;fill-rule:nonzero;fill:rgb(0%,0%,0%);fill-opacity:1;" d="M 80.898438 18.992188 L 81.261719 19.386719 C 80.796875 19.941406 80.171875 20.253906 79.363281 20.253906 C 77.824219 20.253906 76.777344 19.121094 76.777344 17.613281 C 76.777344 16.1875 77.730469 15.035156 79.253906 15.035156 C 80.109375 15.035156 80.78125 15.402344 81.140625 16.066406 L 80.71875 16.390625 C 80.386719 15.828125 79.851562 15.558594 79.226562 15.558594 C 78.082031 15.558594 77.378906 16.476562 77.378906 17.605469 C 77.378906 18.832031 78.210938 19.726562 79.355469 19.726562 C 79.957031 19.726562 80.453125 19.488281 80.898438 18.992188 Z M 80.898438 18.992188 "/>
<path style=" stroke:none;fill-rule:nonzero;fill:rgb(0%,0%,0%);fill-opacity:1;" d="M 82.835938 20.152344 L 82.835938 15.105469 L 83.410156 15.105469 L 83.410156 20.152344 Z M 82.835938 20.152344 "/>
<path style=" stroke:none;fill-rule:nonzero;fill:rgb(0%,0%,0%);fill-opacity:1;" d="M 89.421875 20.152344 L 88.957031 20.152344 L 85.839844 15.992188 L 85.839844 20.152344 L 85.28125 20.152344 L 85.28125 15.105469 L 85.816406 15.105469 L 88.863281 19.164062 L 88.863281 15.105469 L 89.421875 15.105469 Z M 89.421875 20.152344 "/>
<path style=" stroke:none;fill-rule:nonzero;fill:rgb(0%,0%,0%);fill-opacity:1;" d="M 95.523438 19.488281 C 95.066406 19.898438 94.371094 20.253906 93.539062 20.253906 C 91.957031 20.253906 90.988281 19.09375 90.988281 17.628906 C 90.988281 16.25 92 15.035156 93.503906 15.035156 C 94.347656 15.035156 95.03125 15.402344 95.386719 16.066406 L 94.964844 16.390625 C 94.632812 15.832031 94.097656 15.566406 93.480469 15.558594 C 92.371094 15.566406 91.589844 16.511719 91.589844 17.621094 C 91.589844 18.839844 92.335938 19.734375 93.5625 19.734375 C 94.105469 19.734375 94.597656 19.523438 94.957031 19.265625 L 94.957031 17.773438 L 95.523438 17.773438 Z M 95.523438 19.488281 "/>
</g>
</svg>
