<?xml version="1.0" standalone="no"?>
<!DOCTYPE svg PUBLIC "-//W3C//DTD SVG 1.0//EN" "http://www.w3.org/TR/2001/REC-SVG-20010904/DTD/svg10.dtd">
<svg xmlns="http://www.w3.org/2000/svg" xmlns:xlink="http://www.w3.org/1999/xlink" id="body_1" width="30" height="20">

<g transform="matrix(0.19607845 0 0 0.19607845 0.098039225 -0)">
    <path d="M135.257 87.7L128.943 80.6571L122.386 87.7L109.514 87.7L81.8285 87.7L81.8285 54.9143L68.957 54.9143L84.9856 18.2428L100.528 18.2428L106.114 30.8714L106.114 18.2428L125.543 18.2428L128.943 27.7143L132.343 18.2428L147.157 18.2428L147.157 12.6571C 147.157 9.25712 144.486 6.58569 141.086 6.58569L141.086 6.58569L10.9142 6.58569C 7.5142 6.58569 4.84277 9.25712 4.84277 12.6571L4.84277 12.6571L4.84277 91.5857C 4.84277 94.9857 7.5142 97.6571 10.9142 97.6571L10.9142 97.6571L141.086 97.6571C 144.486 97.6571 147.157 94.9857 147.157 91.5857L147.157 91.5857L147.157 87.7L135.257 87.7z" stroke="none" fill="#0071CE" fill-rule="nonzero" />
    <path d="M136.957 83.8142L147.157 83.8142L133.8 69.4857L147.157 55.4L137.2 55.4L128.7 64.6285L120.443 55.4L110.243 55.4L123.843 69.7285L110.243 83.8142L120.2 83.8142L128.7 74.5857L136.957 83.8142z" stroke="none" fill="#0071CE" fill-rule="nonzero" />
    <path d="M93.9716 77.2571L93.9716 72.8857L110 72.8857L110 66.3285L93.9716 66.3285L93.9716 61.9571L110.243 61.9571L110.243 55.4L86.2002 55.4L86.2002 83.8142L110.243 83.8142L110.243 77.2571L93.9716 77.2571z" stroke="none" fill="#0071CE" fill-rule="nonzero" />
    <path d="M139.629 51.2714L146.915 51.2714L146.915 22.6143L135.257 22.8571L128.943 40.5857L122.386 22.8571L110.243 22.8571L110.243 51.2714L118.015 51.2714L118.015 31.3571L125.3 51.2714L132.1 51.2714L139.629 31.3571L139.629 51.2714z" stroke="none" fill="#0071CE" fill-rule="nonzero" />
    <path d="M97.8572 22.8571L87.9001 22.8571L75.2715 51.2714L83.7715 51.2714L86.2001 45.6857L99.3143 45.6857L101.743 51.2714L110.486 51.2714L97.8572 22.8571zM88.8715 39.1285L92.7572 29.9L96.6429 39.1285L88.8715 39.1285z" stroke="none" fill="#0071CE" fill-rule="nonzero" />
    <path d="M140.114 68.7571L147.157 76.5286L147.157 60.9857L140.114 68.7571z" stroke="none" fill="#0071CE" fill-rule="nonzero" />
</g>
</svg>