<?xml version="1.0" encoding="UTF-8"?>
<svg xmlns="http://www.w3.org/2000/svg" xmlns:xlink="http://www.w3.org/1999/xlink" width="107px" height="20px" viewBox="0 0 107 20" version="1.1">
<g id="surface1">
<path style=" stroke:none;fill-rule:nonzero;fill:rgb(0%,0%,0%);fill-opacity:1;" d="M 84.933594 4.640625 L 77.621094 19.78125 L 74.59375 19.78125 L 77.324219 14.125 L 73.035156 4.640625 L 76.144531 4.640625 L 78.902344 10.996094 L 81.914062 4.640625 Z M 84.933594 4.640625 "/>
<path style=" stroke:none;fill-rule:nonzero;fill:rgb(0%,0%,0%);fill-opacity:1;" d="M 57.113281 10.019531 C 57.113281 8.28125 55.808594 6.941406 54.203125 6.941406 C 52.597656 6.941406 51.292969 8.234375 51.292969 10.019531 C 51.292969 11.78125 52.597656 13.09375 54.203125 13.09375 C 55.808594 13.09375 57.113281 11.753906 57.113281 10.019531 M 48.632812 19.78125 L 48.632812 4.640625 L 51.265625 4.640625 L 51.265625 6.035156 C 52.058594 5.050781 53.238281 4.445312 54.644531 4.445312 C 57.539062 4.445312 59.808594 6.832031 59.808594 9.992188 C 59.808594 13.148438 57.492188 15.554688 54.582031 15.554688 C 53.230469 15.554688 52.121094 15.023438 51.34375 14.117188 L 51.34375 19.773438 Z M 48.632812 19.78125 "/>
<path style=" stroke:none;fill-rule:nonzero;fill:rgb(0%,0%,0%);fill-opacity:1;" d="M 69.3125 10.019531 C 69.3125 8.207031 68.003906 6.941406 66.398438 6.941406 C 64.792969 6.941406 63.488281 8.234375 63.488281 10.019531 C 63.488281 11.78125 64.792969 13.09375 66.398438 13.09375 C 68.003906 13.09375 69.3125 11.820312 69.3125 10.019531 M 69.328125 15.394531 L 69.328125 14 C 68.535156 14.96875 67.355469 15.566406 65.949219 15.566406 C 63.011719 15.566406 60.785156 13.203125 60.785156 10.019531 C 60.785156 6.859375 63.101562 4.453125 66.011719 4.453125 C 67.382812 4.453125 68.535156 5.058594 69.328125 6 L 69.328125 4.644531 L 71.960938 4.644531 L 71.960938 15.394531 Z M 69.328125 15.394531 "/>
<path style=" stroke:none;fill-rule:nonzero;fill:rgb(0%,0%,0%);fill-opacity:1;" d="M 43.882812 5.691406 C 43.882812 5.691406 44.546875 4.445312 46.199219 4.445312 C 46.902344 4.445312 47.351562 4.6875 47.351562 4.6875 L 47.351562 7.429688 C 47.351562 7.429688 46.359375 6.816406 45.449219 6.941406 C 44.539062 7.066406 43.960938 7.902344 43.960938 9.023438 L 43.960938 15.394531 L 41.242188 15.394531 L 41.242188 4.640625 L 43.871094 4.640625 Z M 43.882812 5.691406 "/>
<path style=" stroke:none;fill-rule:nonzero;fill:rgb(0%,0%,0%);fill-opacity:1;" d="M 105.378906 4.035156 L 102.257812 2.246094 L 99.09375 0.425781 C 97.003906 -0.777344 94.390625 0.734375 94.390625 3.160156 L 94.390625 3.566406 C 94.390625 3.792969 94.507812 4 94.703125 4.109375 L 96.175781 4.949219 C 96.578125 5.183594 97.085938 4.886719 97.085938 4.417969 L 97.085938 3.449219 C 97.085938 2.96875 97.597656 2.667969 98.011719 2.90625 L 100.898438 4.570312 L 103.773438 6.226562 C 104.1875 6.460938 104.1875 7.066406 103.773438 7.304688 L 100.898438 8.960938 L 98.011719 10.625 C 97.597656 10.859375 97.085938 10.5625 97.085938 10.082031 L 97.085938 9.601562 C 97.085938 7.175781 94.46875 5.65625 92.378906 6.867188 L 89.214844 8.6875 L 86.097656 10.480469 C 83.996094 11.691406 83.996094 14.742188 86.097656 15.953125 L 89.214844 17.746094 L 92.378906 19.566406 C 94.46875 20.769531 97.085938 19.257812 97.085938 16.832031 L 97.085938 16.425781 C 97.085938 16.199219 96.96875 15.992188 96.769531 15.882812 L 95.300781 15.039062 C 94.894531 14.804688 94.390625 15.105469 94.390625 15.574219 L 94.390625 16.542969 C 94.390625 17.023438 93.875 17.320312 93.460938 17.085938 L 90.574219 15.421875 L 87.699219 13.765625 C 87.285156 13.53125 87.285156 12.921875 87.699219 12.6875 L 90.574219 11.03125 L 93.460938 9.367188 C 93.875 9.132812 94.390625 9.429688 94.390625 9.910156 L 94.390625 10.390625 C 94.390625 12.816406 97.003906 14.335938 99.09375 13.121094 L 102.257812 11.304688 L 105.378906 9.511719 C 107.476562 8.289062 107.476562 5.25 105.378906 4.035156 Z M 105.378906 4.035156 "/>
<path style=" stroke:none;fill-rule:nonzero;fill:rgb(0%,0%,0%);fill-opacity:1;" d="M 10.980469 11.382812 C 10.402344 13.855469 8.285156 15.554688 5.542969 15.554688 C 2.378906 15.554688 0 13.167969 0 10.007812 C 0 6.851562 2.414062 4.445312 5.589844 4.445312 C 8.265625 4.445312 10.359375 6.144531 10.960938 8.570312 L 8.175781 8.570312 C 7.679688 7.601562 6.699219 6.960938 5.605469 6.960938 C 4.019531 6.960938 2.695312 8.273438 2.695312 10.007812 C 2.695312 11.746094 4.019531 13.058594 5.605469 13.058594 C 6.742188 13.058594 7.726562 12.417969 8.195312 11.382812 Z M 10.980469 11.382812 "/>
<path style=" stroke:none;fill-rule:nonzero;fill:rgb(0%,0%,0%);fill-opacity:1;" d="M 12.234375 15.382812 L 12.234375 0.21875 L 14.925781 0.21875 L 14.925781 15.382812 Z M 12.234375 15.382812 "/>
<path style=" stroke:none;fill-rule:nonzero;fill:rgb(0%,0%,0%);fill-opacity:1;" d="M 18.984375 10.722656 C 19.171875 12.316406 20.308594 13.210938 21.742188 13.210938 C 22.878906 13.210938 23.753906 12.679688 24.265625 11.820312 L 27.023438 11.820312 C 26.386719 14.101562 24.347656 15.558594 21.671875 15.558594 C 18.433594 15.558594 16.171875 13.277344 16.171875 10.035156 C 16.171875 6.796875 18.570312 4.453125 21.734375 4.453125 C 24.925781 4.453125 27.230469 6.816406 27.230469 10.035156 C 27.230469 10.273438 27.214844 10.507812 27.167969 10.722656 Z M 24.355469 9.039062 C 24.167969 7.648438 23.03125 6.804688 21.707031 6.804688 C 20.382812 6.804688 19.289062 7.621094 19.011719 9.039062 Z M 24.355469 9.039062 "/>
<path style=" stroke:none;fill-rule:nonzero;fill:rgb(0%,0%,0%);fill-opacity:1;" d="M 36.859375 15.382812 L 36.859375 13.992188 C 36.066406 14.960938 34.894531 15.554688 33.480469 15.554688 C 30.550781 15.554688 28.324219 13.195312 28.324219 10.007812 C 28.324219 6.851562 30.628906 4.445312 33.542969 4.445312 C 34.914062 4.445312 36.066406 5.039062 36.859375 5.992188 L 36.859375 4.632812 L 39.492188 4.632812 L 39.492188 15.375 L 36.859375 15.375 Z M 36.832031 10.007812 C 36.832031 8.207031 35.527344 6.933594 33.921875 6.933594 C 32.316406 6.933594 31.007812 8.21875 31.007812 10.007812 C 31.007812 11.773438 32.316406 13.085938 33.921875 13.085938 C 35.527344 13.085938 36.832031 11.820312 36.832031 10.007812 Z M 36.832031 10.007812 "/>
</g>
</svg>
