<svg xmlns="http://www.w3.org/2000/svg" xmlns:xlink="http://www.w3.org/1999/xlink" width="40" height="40" viewBox="0 0 40 40">
  <defs>
    <circle id="instagram-a" cx="20" cy="20" r="20"/>
    <path id="instagram-c" d="M16.6618268,4.50891393 C16.6618268,5.19332839 16.1070011,5.7481958 15.4225449,5.7481958 C14.7381304,5.7481958 14.1833048,5.19332839 14.1833048,4.50891393 C14.1833048,3.82449947 14.7381304,3.26963206 15.4225449,3.26963206 C16.1070011,3.26963206 16.6618268,3.82449947 16.6618268,4.50891393 L16.6618268,4.50891393 Z M13.5038199,9.95264703 C13.4604147,11.9391743 11.9128268,13.4952428 9.98056638,13.4952428 C8.03794557,13.4952428 6.45752175,11.914819 6.45752175,9.97219814 C6.45752175,9.00851184 6.85334834,8.071395 7.54348609,7.40110079 C8.17898098,6.78390375 8.99757961,6.44735715 9.85799591,6.44735715 C9.89007979,6.44735715 9.92228901,6.44785846 9.95449822,6.44877753 C11.1215913,6.48282489 12.0607134,6.84489655 12.6704326,7.49576497 C13.2375403,8.10118121 13.5257522,8.95077755 13.5038199,9.95264703 L13.5038199,9.95264703 Z M10.0066763,4.65914004 C8.62360181,4.61874275 7.30540528,5.13642962 6.2960997,6.11674273 C5.26085129,7.12224671 4.66713229,8.5275042 4.66713229,9.97219814 C4.66713229,12.9020669 7.05073943,15.2856322 9.98056638,15.2856322 C11.395307,15.2856322 12.723488,14.7318928 13.7204279,13.7264723 C14.7040831,12.734462 15.2628774,11.4081191 15.2938334,9.99179104 C15.3261261,8.51221423 14.8708524,7.2258927 13.977099,6.27177307 C13.0340917,5.2650576 11.661127,4.7073912 10.0066763,4.65914004 L10.0066763,4.65914004 Z M18.2463028,14.2869795 C18.2463028,16.6293956 16.3406119,18.5351701 13.998154,18.5351701 L5.9630205,18.5351701 C3.62056262,18.5351701 1.7148717,16.6293956 1.7148717,14.2869795 L1.7148717,5.71306228 C1.7148717,3.37060439 3.62056262,1.46491347 5.9630205,1.46491347 L13.998154,1.46491347 C16.3406119,1.46491347 18.2463028,3.37060439 18.2463028,5.71306228 L18.2463028,14.2869795 Z M13.998154,0 L5.9630205,0 C2.81282572,0 0.25,2.5628675 0.25,5.71306228 L0.25,14.2869795 C0.25,17.4371325 2.81282572,20 5.9630205,20 L13.998154,20 C17.1483488,20 19.7111328,17.4371325 19.7111328,14.2869795 L19.7111328,5.71306228 C19.7111328,2.5628675 17.1483488,0 13.998154,0 L13.998154,0 Z"/>
  </defs>
  <g fill="none" fill-rule="evenodd">
    <mask id="instagram-b" fill="#fff">
      <use xlink:href="#instagram-a"/>
    </mask>
    <g fill="#161616" mask="url(#instagram-b)">
      <rect width="40" height="40"/>
    </g>
    <g mask="url(#instagram-b)">
      <g transform="translate(10 10)">
        <mask id="instagram-d" fill="#fff">
          <use xlink:href="#instagram-c"/>
        </mask>
        <use fill="#092A5E" xlink:href="#instagram-c"/>
        <g mask="url(#instagram-d)">
          <rect width="20" height="20" fill="#FFF"/>
        </g>
      </g>
    </g>
  </g>
</svg>
