<svg xmlns="http://www.w3.org/2000/svg" width="32" height="20" viewBox="0 0 32 20">
  <g fill="none">
    <rect width="8.647" height="15.54" x="11.708" y="2.155" fill="#FF5F00"/>
    <path fill="#EB001B" d="M12.2565681,9.92603589 C12.2533352,6.8931851 13.6452369,4.02738592 16.0309872,2.15485016 C11.9792623,-1.0293728 6.16082292,-0.565563193 2.66471183,3.22032606 C-0.831399256,7.00621531 -0.831399256,12.8431114 2.66471183,16.6290007 C6.16082292,20.4148899 11.9792623,20.8786995 16.0309872,17.6944766 C13.6459959,15.8225353 12.2541792,12.9579234 12.2565681,9.92603589 L12.2565681,9.92603589 Z"/>
    <path fill="#F79E1B" d="M32.0207988 9.92603589C32.0207988 13.709618 29.8602997 17.1610209 26.4571007 18.8144205 23.0539018 20.4678202 19.0053913 20.0329405 16.0309872 17.6944766 18.4149378 15.820946 19.8068593 12.956715 19.8068593 9.92466337 19.8068593 6.89261173 18.4149378 4.0283807 16.0309872 2.15485016 19.0053913-.183613773 23.0539018-.618493444 26.4571007 1.03490621 29.8602997 2.68830587 32.0207988 6.13970877 32.0207988 9.92329086L32.0207988 9.92603589zM31.1362009 16.7384256L31.1362009 15.8474853 31.3041838 15.8474853 31.3041838 15.6631529 30.8788655 15.6631529 30.8788655 15.8474853 31.0611448 15.8474853 31.0611448 16.7384256 31.1362009 16.7384256zM31.9618188 16.7384256L31.9618188 15.6631529 31.8331511 15.6631529 31.6830387 16.4312048 31.5329264 15.6631529 31.4185551 15.6631529 31.4185551 16.7384256 31.5114818 16.7384256 31.5114818 15.9319711 31.6508718 16.6308983 31.7473726 16.6308983 31.8867626 15.9319711 31.8867626 16.7461061 31.9618188 16.7384256z"/>
  </g>
</svg>
