<?xml version="1.0" encoding="UTF-8"?>
<svg width="82px" height="20px" viewBox="0 0 82 20" version="1.1" xmlns="http://www.w3.org/2000/svg" xmlns:xlink="http://www.w3.org/1999/xlink">
    <!-- Generator: sketchtool 63.1 (101010) - https://sketch.com -->
    <title>B27F0A6E-5741-4130-8E37-9279864E5B80</title>
    <desc>Created with sketchtool.</desc>
    <g id="Symbols-ðŸ†" stroke="none" stroke-width="1" fill="none" fill-rule="evenodd">
        <g id="Footer/Ways-to-Pay/Desktop" transform="translate(-526.000000, -95.000000)">
            <g transform="translate(258.000000, 44.000000)" id="Ways-to-Pay">
                <g>
                    <g id="Ways-to-Pay-Logos" transform="translate(0.000000, 51.000000)">
                        <g id="Ways-to-Pay/Paypal" transform="translate(268.000000, 0.000000)">
                            <path d="M7.09879231,4.63925521 L12.6578627,4.63925521 C15.6425985,4.63925521 16.7661794,6.15027771 16.5925481,8.37017496 C16.3055543,12.0350861 14.0899619,14.0626975 11.1511451,14.0626975 L9.66738706,14.0626975 C9.26416073,14.0626975 8.99295156,14.3296018 8.88389391,15.0528262 L8.25394246,19.2572858 C8.21232836,19.5299299 8.06883144,19.6877765 7.85358607,19.7093011 L4.3608712,19.7093011 C4.03226327,19.7093011 3.91603077,19.4581815 4.00212892,18.9143282 L6.13162311,5.43566308 C6.21485132,4.89611469 6.51045496,4.63925521 7.09879231,4.63925521 Z" id="Path" fill="#009EE3"></path>
                            <path d="M31.2335382,4.38957058 C33.1090428,4.38957058 34.8396156,5.4069637 34.6028457,7.94255416 C34.3158519,10.9559893 32.7015116,12.6234235 30.1544414,12.6305983 L27.9288043,12.6305983 C27.6088061,12.6305983 27.4538295,12.8917627 27.3706013,13.4270062 L26.9401105,16.1634923 C26.8755369,16.5767634 26.6631615,16.7805291 26.3503382,16.7805291 L24.2796778,16.7805291 C23.9496349,16.7805291 23.8348373,16.5695886 23.9080207,16.0974837 L25.617069,5.13001466 C25.7017322,4.59046626 25.9040628,4.38957058 26.2728499,4.38957058 L31.2292333,4.38957058 L31.2335382,4.38957058 Z M27.8613607,10.2614643 L29.5474494,10.2614643 C30.6021518,10.2212851 31.3024167,9.49088585 31.3727302,8.17358419 C31.4157793,7.35995669 30.8661861,6.77735922 29.9922899,6.78164043 L28.405214,6.78883897 L27.8613607,10.2614643 L27.8613607,10.2614643 Z M40.2322296,15.9410721 C40.4216455,15.7688758 40.6139314,15.6799077 40.586667,15.8922832 L40.5192234,16.4002622 C40.4847842,16.6657315 40.5895369,16.8063585 40.8363516,16.8063585 L42.6759821,16.8063585 C42.9859354,16.8063585 43.1366071,16.6815162 43.2126605,16.2022365 L44.3462861,9.08765953 C44.4036849,8.73035221 44.3161518,8.55528598 44.0449426,8.55528598 L42.0216361,8.55528598 C41.839395,8.55528598 41.750427,8.65716879 41.703073,8.9355528 L41.6284546,9.37321839 C41.5897104,9.60137848 41.4849577,9.64155761 41.3873798,9.41196255 C41.0444221,8.59977002 40.169091,8.23528786 38.9479322,8.26398724 C36.1109983,8.32282098 34.1981844,10.4767096 33.9929838,13.2375903 C33.8351372,15.3728243 35.3648143,17.0503033 37.3823809,17.0503033 C38.8460494,17.0503033 39.5003954,16.6198125 40.2379695,15.945377 L40.2379695,15.945377 L40.2322296,15.9410721 Z M38.6910728,14.8461907 C37.469914,14.8461907 36.6189773,13.8718466 36.7954785,12.6779523 C36.9719797,11.484058 38.1142152,10.5097139 39.3353739,10.5097139 C40.5565326,10.5097139 41.4074693,11.484058 41.2309681,12.6779523 C41.0544669,13.8718466 39.9136665,14.8461907 38.6910728,14.8461907 L38.6910728,14.8461907 Z M47.9466237,8.53232647 L46.0811638,8.53232647 C45.6965921,8.53232647 45.5401804,8.8193203 45.6621528,9.17232271 L47.978193,15.9539868 L45.7066369,19.1812324 C45.515786,19.4510066 45.6635878,19.6963863 45.931927,19.6963863 L48.0284169,19.6963863 C48.2779492,19.7252372 48.521358,19.6057762 48.6511935,19.3907379 L55.7743803,9.17375768 C55.9939306,8.85949944 55.8906128,8.52945653 55.5304356,8.52945653 L53.5458732,8.52945653 C53.2057856,8.52945653 53.0694635,8.66434363 52.8743077,8.94703255 L49.9039216,13.25194 L48.5765751,8.93698777 C48.4990868,8.67582339 48.305366,8.53232647 47.9480587,8.53232647 L47.9466237,8.53232647 Z" id="Shape" fill="#113984"></path>
                            <path d="M63.1845609,4.38957058 C65.0600656,4.38957058 66.7906384,5.4069637 66.5538684,7.94255416 C66.2668746,10.9559893 64.6525343,12.6234235 62.1054641,12.6305983 L59.881262,12.6305983 C59.5612639,12.6305983 59.4062872,12.8917627 59.323059,13.4270062 L58.8925682,16.1634923 C58.8279946,16.5767634 58.6156192,16.7805291 58.3027959,16.7805291 L56.2321355,16.7805291 C55.9020926,16.7805291 55.787295,16.5695886 55.8604785,16.0974837 L57.5723966,5.12714472 C57.6570598,4.58759632 57.8593905,4.38670064 58.2281775,4.38670064 L63.1845609,4.38670064 L63.1845609,4.38957058 Z M59.8123835,10.2614643 L61.4984722,10.2614643 C62.5531745,10.2212851 63.2534394,9.49088585 63.3237529,8.17358419 C63.366802,7.35995669 62.8172088,6.77735922 61.9433126,6.78164043 L60.3562368,6.78883897 L59.8123835,10.2614643 L59.8123835,10.2614643 L59.8123835,10.2614643 Z M72.1832524,15.9410721 C72.3726683,15.7688758 72.5649542,15.6799077 72.5376897,15.8922832 L72.4702462,16.4002622 C72.4358069,16.6657315 72.5405597,16.8063585 72.7873744,16.8063585 L74.6270048,16.8063585 C74.9369581,16.8063585 75.0876299,16.6815162 75.1636833,16.2022365 L76.2973089,9.08765953 C76.3547076,8.73035221 76.2671745,8.55528598 75.9959654,8.55528598 L73.9755288,8.55528598 C73.7932877,8.55528598 73.7043196,8.65716879 73.6569657,8.9355528 L73.5823473,9.37321839 C73.5436031,9.60137848 73.4388504,9.64155761 73.3412725,9.41196255 C72.9983148,8.59977002 72.1229837,8.23528786 70.9018249,8.26398724 C68.0648909,8.32282098 66.1520771,10.4767096 65.9468765,13.2375903 C65.7890299,15.3728243 67.318707,17.0503033 69.3362736,17.0503033 C70.7999421,17.0503033 71.454288,16.6198125 72.1918622,15.945377 L72.1918622,15.945377 L72.1832524,15.9410721 Z M70.6435305,14.8461907 C69.4223717,14.8461907 68.5714351,13.8718466 68.7479363,12.6779523 C68.9244375,11.484058 70.0666729,10.5097139 71.2878316,10.5097139 C72.5089904,10.5097139 73.3599271,11.484058 73.1834259,12.6779523 C73.0069246,13.8718466 71.8646892,14.8461907 70.6435305,14.8461907 L70.6435305,14.8461907 Z M79.128503,16.8178383 L77.0047487,16.8178383 C76.9299562,16.8211839 76.8575715,16.7909836 76.8073347,16.7354734 C76.757098,16.6799632 76.7342491,16.604933 76.7450192,16.5308444 L78.6104791,4.71243864 C78.6471506,4.546362 78.7934161,4.42744698 78.9634815,4.42544481 L81.0872358,4.42544481 C81.1620283,4.42209921 81.234413,4.45229951 81.2846498,4.50780969 C81.3348865,4.56331987 81.3577354,4.63835009 81.3469653,4.71243864 L79.4815054,16.5308444 C79.4459911,16.6980601 79.2994329,16.8184046 79.128503,16.8207082 L79.128503,16.8178383 Z" id="Shape" fill="#009EE3"></path>
                            <path d="M3.6218621,0 L9.1866724,0 C10.7536587,0 12.6133787,0.0502239197 13.856062,1.14797531 C14.6869091,1.88124454 15.1231397,3.04787444 15.0226919,4.3049074 C14.6811692,8.55385101 12.1398389,10.9344648 8.73035221,10.9344648 L5.98669123,10.9344648 C5.51889129,10.9344648 5.21037293,11.2444181 5.07835577,12.0824401 L4.31208225,16.9613352 C4.26185833,17.2770284 4.12553626,17.4635744 3.88159151,17.4865339 L0.44771037,17.4865339 C0.0674435493,17.4865339 -0.0674435493,17.19954 0.031569321,16.5652837 L2.49971623,0.926990061 C2.5987291,0.29847358 2.94455666,0 3.6218621,0 Z" id="Path" fill="#113984"></path>
                            <path d="M5.15871404,11.5873758 L6.13018814,5.43566308 C6.21485132,4.89611469 6.51045496,4.63782024 7.09879231,4.63782024 L12.6578627,4.63782024 C13.5776779,4.63782024 14.3224269,4.78131716 14.9050244,5.04678645 C14.3468214,8.82936508 11.900199,10.9301599 8.69734792,10.9301599 L5.95799185,10.9301599 C5.59063975,10.9315949 5.32086555,11.1152709 5.15871404,11.5873758 Z" id="Path" fill="#172C70"></path>
                        </g>
                    </g>
                </g>
            </g>
        </g>
    </g>
</svg>