<svg xmlns="http://www.w3.org/2000/svg" xmlns:xlink="http://www.w3.org/1999/xlink" width="40" height="40" viewBox="0 0 40 40">
  <defs>
    <circle id="pintrest-a" cx="20" cy="20" r="20"/>
    <path id="pintrest-c" d="M10.0001202,0 C4.47731779,0 0,4.47707745 0,9.99987983 C0,14.2363757 2.63582287,17.854954 6.35582527,19.3119029 C6.26834104,18.5206994 6.1895091,17.3072162 6.39043442,16.4434297 C6.57213243,15.6630415 7.56305954,11.4726912 7.56305954,11.4726912 C7.56305954,11.4726912 7.26407499,10.8737607 7.26407499,9.98810311 C7.26407499,8.59748843 8.06993931,7.55945443 9.07336418,7.55945443 C9.92657574,7.55945443 10.338761,8.19996395 10.338761,8.96809469 C10.338761,9.82611308 9.7924653,11.1088145 9.51054497,12.2975425 C9.27477017,13.2930361 10.0094935,14.1046686 10.9912876,14.1046686 C12.7686114,14.1046686 14.1349516,12.2304873 14.1349516,9.52544613 C14.1349516,7.13116626 12.4143484,5.45694887 9.9578201,5.45694887 C7.11241964,5.45694887 5.44228805,7.59117947 5.44228805,9.79679144 C5.44228805,10.6562519 5.77347834,11.5779607 6.18662501,12.0788319 C6.26834104,12.1778526 6.28035811,12.2646158 6.2558433,12.3655591 C6.18013579,12.6816079 6.01141621,13.3608124 5.97824911,13.4997296 C5.934507,13.6828697 5.83332332,13.7215646 5.64369405,13.6335997 C4.39488073,13.0519738 3.6140119,11.2261011 3.6140119,9.75953854 C3.6140119,6.60481884 5.90590639,3.70798534 10.2212342,3.70798534 C13.6903203,3.70798534 16.3862284,6.17989545 16.3862284,9.48362675 C16.3862284,12.9298804 14.2130625,15.7034189 11.1970198,15.7034189 C10.1837409,15.7034189 9.23102806,15.1770714 8.90512528,14.5553085 C8.90512528,14.5553085 8.40353302,16.4645797 8.28216067,16.9325242 C8.05623986,17.8011176 7.44673436,18.8898636 7.03911554,19.5541669 C7.97476417,19.8437782 8.96905606,20 10.0001202,20 C15.5229226,20 20,15.5229226 20,9.99987983 C20,4.47707745 15.5229226,0 10.0001202,0"/>
  </defs>
  <g fill="none" fill-rule="evenodd">
    <mask id="pintrest-b" fill="#fff">
      <use xlink:href="#pintrest-a"/>
    </mask>
    <g fill="#161616" mask="url(#pintrest-b)">
      <rect width="40" height="40"/>
    </g>
    <g mask="url(#pintrest-b)">
      <g transform="translate(10 10)">
        <mask id="pintrest-d" fill="#fff">
          <use xlink:href="#pintrest-c"/>
        </mask>
        <use fill="#092A5E" xlink:href="#pintrest-c"/>
        <g mask="url(#pintrest-d)">
          <rect width="20" height="20" fill="#FFF"/>
        </g>
      </g>
    </g>
  </g>
</svg>
