<svg width="92" height="20" viewBox="0 0 92 20" fill="none" xmlns="http://www.w3.org/2000/svg">
<path fill-rule="evenodd" clip-rule="evenodd" d="M30.7601 10.5149C29.82 10.7467 26.1658 8.21735 25.5631 7.78128C26.2277 6.759 26.7437 5.15598 26.7437 5.15598C28.3889 5.27871 29.3432 5.09016 29.3432 5.09016C29.7759 6.58171 30.1383 7.68998 30.4039 8.50214L30.4039 8.50217L30.4039 8.50219L30.4039 8.50223C30.8721 9.93412 31.0393 10.4455 30.7601 10.5142V10.5149ZM25.0806 7.42544C24.1797 6.75146 22.1074 5.04285 22.3145 4.66644C22.3936 4.52261 22.7448 4.58788 23.4317 4.7155C24.012 4.82333 24.8319 4.97566 25.9295 5.08399C25.9295 5.08399 25.694 6.07542 25.0806 7.42544ZM29.1538 4.47098L29.1538 4.47103L29.1546 4.47377C29.1546 4.47377 27.8673 4.51697 26.9842 4.37436C27.1958 3.62865 27.3502 2.89482 27.4745 2.30431C27.6351 1.54072 27.7454 1.0168 27.8638 1.0168C28.109 1.0168 28.8727 3.54172 29.1538 4.47098ZM33.1868 10.8269V3.96425C32.3315 4.32636 31.4499 4.64192 30.5437 4.86116C30.8892 6.11974 31.2504 7.15252 31.5478 8.00311L31.5478 8.00318L31.5479 8.00335L31.548 8.00371L31.5481 8.00386L31.5481 8.0039C32.2315 9.95807 32.5785 10.9504 31.6261 11.5098C30.0018 12.4644 26.9194 10.2462 25.1426 8.96749C25.0512 8.90172 24.9633 8.83844 24.8792 8.7782C24.1974 9.65032 23.3613 10.4066 22.3743 10.9523C22.3429 10.9695 22.3031 10.9592 22.2853 10.929C22.2668 10.8989 22.2803 10.8639 22.3081 10.8433C23.2076 10.1817 23.9299 9.37401 24.4963 8.48337C24.3086 8.29564 24.0207 8.06188 23.6921 7.79506C22.9996 7.23273 22.1262 6.52358 21.6289 5.78909C21.0827 6.92224 19.8112 7.51938 18.1956 7.51938H16.1468V10.8276H14.3471V1.37472H18.1266C20.205 1.37472 21.5329 2.15775 21.8473 3.68034C22.38 3.42295 23.1752 3.61383 24.18 3.85502C24.7636 3.99509 25.4178 4.15213 26.1324 4.2482C26.2761 3.77805 26.3509 3.20537 26.4255 2.63468C26.5984 1.31199 26.7699 0 27.794 0C28.9096 0 29.2822 1.13725 29.8055 2.73484C29.9698 3.23653 30.149 3.78363 30.3708 4.35516C31.3082 4.21528 32.2479 3.97389 33.1868 3.69329V1.49124H37.0488C39.3744 1.49124 40.745 2.54506 40.745 4.34554C40.745 5.8128 39.7757 6.79943 38.5161 7.18613L41.3954 10.8269H39.3053L36.5919 7.3596H34.9865V10.8269H33.1868ZM12.968 8.18651C12.968 9.76004 11.5561 11.0141 9.34152 11.0141C7.34825 11.0141 6.06091 10.2942 5.35498 8.96059L6.83659 8.14674C7.34896 9.08057 8.2207 9.52075 9.43901 9.52075C10.5598 9.52075 11.211 9.00035 11.211 8.24067C11.211 7.52007 10.4773 7.26707 9.25897 6.94688C7.14117 6.42648 5.82608 5.69285 5.82608 4.01235C5.82608 2.10491 7.57028 1.37197 9.23122 1.37197C10.505 1.37197 12.2072 1.78541 12.7751 3.35894L11.1974 4.02607C10.9341 3.31917 10.2012 2.85226 9.19065 2.85226C8.18014 2.85226 7.58451 3.30615 7.58451 3.99933C7.58451 4.73296 8.30468 4.93316 9.79909 5.3466C11.6821 5.85329 12.9687 6.52041 12.9687 8.18719L12.968 8.18651ZM18.0298 6.0199C19.2894 6.0199 20.0373 5.45288 20.0373 4.44019C20.0373 3.42751 19.3178 2.87352 18.0163 2.87352H16.1475V6.0199H18.0298ZM38.8627 4.34554C38.8627 5.30543 38.198 5.87931 37.0907 5.87931L37.0915 5.88H34.9872V2.97221H37.0082C38.1703 2.97221 38.8627 3.49193 38.8627 4.34554ZM44.281 7.7333V10.8276H42.4813V1.49195H44.281V5.69284L48.2127 1.49195H50.4551L46.5098 5.47961L50.87 10.8276H48.6276L45.278 6.73295L44.281 7.7333ZM54.8558 11.0141C57.0704 11.0141 58.4822 9.76004 58.4822 8.18651V8.18719C58.4822 6.52041 57.1956 5.85329 55.3126 5.3466C53.8182 4.93316 53.0981 4.73296 53.0981 3.99933C53.0981 3.30615 53.6937 2.85226 54.7042 2.85226C55.7147 2.85226 56.4477 3.31917 56.711 4.02607L58.2894 3.35894C57.7215 1.78541 56.0193 1.37197 54.7455 1.37197C53.0845 1.37197 51.3403 2.10491 51.3403 4.01235C51.3403 5.69285 52.6554 6.42648 54.7732 6.94688C55.9915 7.26707 56.7252 7.52007 56.7252 8.24067C56.7252 9.00035 56.0741 9.52075 54.9533 9.52075C53.735 9.52075 52.8632 9.08057 52.3509 8.14674L50.8692 8.96059C51.5752 10.2942 52.8625 11.0141 54.8558 11.0141ZM69.9003 4.22418C69.9003 5.6935 68.8884 6.34828 67.1 6.34828H64.7844V2.1138H67.1826C68.9161 2.1138 69.9003 2.75487 69.9003 4.22418ZM70.6354 4.19813C70.6354 2.35446 69.3872 1.47273 67.2246 1.47273H64.0635V10.8241H64.7844V6.99004H67.0581C69.2072 6.99004 70.6354 6.16179 70.6354 4.19813ZM74.5736 2.03358L72.2167 7.52346H76.9582L74.5736 2.03358ZM71.9391 8.16522L70.7884 10.8234H70.0256L74.0598 1.47273H75.0859L79.1344 10.8234H78.3722L77.2215 8.16522H71.9391ZM82.0186 6.14808L85.2074 1.47273H86.0671L82.3794 6.76241V10.8234H81.6585V6.77543L77.9702 1.47273H78.8718L82.0186 6.14808ZM8.81487 15.9147H9.34947L10.8101 18.5809L12.2765 15.9147H12.8169V19.9204H12.2823V16.8475L10.9996 19.1996H10.6198L9.34285 16.8595V19.9204H8.81405V15.9147H8.81487ZM16.6476 19.336C16.2975 19.7992 15.9053 19.9993 15.4005 19.9993C14.6226 19.9993 14.1236 19.576 14.1236 18.9237C14.1236 18.4198 14.4082 18.0483 15.0504 17.7046C14.6466 17.2868 14.5274 17.0524 14.5274 16.7375C14.5274 16.2113 14.9428 15.8333 15.537 15.8333C16.1312 15.8333 16.5764 16.1993 16.5764 16.72C16.5764 17.1322 16.3149 17.4639 15.7389 17.7788L16.5938 18.6543L17.0514 17.9335L17.4255 18.1567L16.9025 18.9636L17.5438 19.6158L17.2169 19.9188L16.6476 19.336ZM16.3513 19.0322C16.0716 19.3989 15.7754 19.5704 15.4187 19.5704L15.4195 19.5696C14.9677 19.5696 14.659 19.2841 14.659 18.8775C14.659 18.5339 14.8667 18.2652 15.3417 18.002L16.3513 19.0322ZM16.0658 16.7606C16.0658 17.0357 15.8697 17.2701 15.4601 17.4934C15.1398 17.1617 15.0446 16.9894 15.0446 16.755C15.0446 16.4521 15.2523 16.24 15.5552 16.24C15.8581 16.24 16.0658 16.4513 16.0658 16.7606ZM18.2688 19.1015L18.7024 18.8615C18.9399 19.3248 19.3437 19.5536 19.9197 19.5536C20.4957 19.5536 20.8581 19.2674 20.8581 18.844C20.8581 18.4206 20.4601 18.2835 19.8841 18.1288C19.0524 17.9111 18.4765 17.6536 18.4765 16.9671C18.4765 16.1778 19.213 15.8572 19.8717 15.8572C20.3823 15.8572 21.0476 16.0574 21.2909 16.7383L20.8333 16.9041C20.6968 16.5318 20.3343 16.3029 19.8593 16.3029C19.3247 16.3029 18.992 16.5493 18.992 16.944C18.992 17.3386 19.4017 17.4989 19.9718 17.648C20.7911 17.8601 21.3737 18.1168 21.3737 18.8209C21.3737 19.5249 20.7621 19.9993 19.9131 19.9993C19.1236 19.9993 18.565 19.6899 18.2679 19.1007L18.2688 19.1015ZM28.0483 19.2391L28.0487 19.2387V19.2395L28.0483 19.2391ZM27.6631 18.8903L28.0483 19.2391C27.6503 19.7197 27.11 19.9938 26.4035 19.9938C25.1324 19.9938 24.2718 19.1127 24.2718 17.8936C24.2718 16.7439 25.0737 15.8397 26.3448 15.8397C27.0515 15.8397 27.6333 16.1491 27.9361 16.7096L27.5025 16.9671C27.2592 16.5262 26.8314 16.3205 26.3448 16.3205C25.3823 16.3205 24.8304 17.019 24.8304 17.8944C24.8304 18.8217 25.4717 19.5138 26.4159 19.5138C26.9447 19.5138 27.3602 19.3081 27.6631 18.8903ZM29.3727 15.9146H30.8756C31.8198 15.9146 32.366 16.338 32.366 17.0644C32.366 17.7341 31.915 18.1511 31.3034 18.2659L32.6333 19.9196H31.9919L30.6852 18.2946H29.9073V19.9196H29.3727V15.9146ZM29.9073 16.3723V17.837H30.9169C31.5053 17.837 31.8314 17.5683 31.8314 17.0755C31.8314 16.6179 31.5045 16.3715 30.8929 16.3715H29.9073V16.3723ZM33.921 19.9196H36.6767V19.9188V19.4324H34.4556V18.1336H36.4036V17.6647H34.4556V16.4002H36.5517V15.9138H33.921V19.9196ZM41.7065 17.9167C41.7065 19.0664 40.7921 19.9196 39.4316 19.9196H38.0951V15.9138H39.4316C40.7912 15.9138 41.7065 16.7494 41.7065 17.9167ZM41.1545 17.9167C41.1545 17.0412 40.5016 16.4002 39.4324 16.4002H38.6305V19.4332H39.4324C40.5074 19.4332 41.1545 18.7977 41.1545 17.9167ZM43.6247 15.9147H43.0901V19.9204H43.6247V15.9147ZM46.7007 19.9196H46.1661V16.4002H44.8594V15.9138H48.0074V16.4002H46.7007V19.9196ZM52.9718 15.9147H52.3139L50.6034 19.9204H51.1496L51.5832 18.8847H53.6852L54.1246 19.9204H54.6824L52.9718 15.9147ZM53.494 18.427H51.7777L52.6325 16.3954L53.494 18.427ZM59.1528 19.2387C58.7547 19.7195 58.2143 19.9938 57.5076 19.9938C56.2365 19.9938 55.3759 19.1127 55.3759 17.8936C55.3759 16.7439 56.1778 15.8397 57.4489 15.8397C58.1556 15.8397 58.7373 16.1491 59.0402 16.7096L58.6066 16.9671C58.3633 16.5262 57.9355 16.3205 57.4489 16.3205C56.4864 16.3205 55.9345 17.019 55.9345 17.8944C55.9345 18.8217 56.5758 19.5138 57.52 19.5138C58.0488 19.5138 58.4643 19.3081 58.7671 18.8903L59.1528 19.2387ZM62.2048 19.9938C62.9115 19.9938 63.4519 19.7195 63.8499 19.2387L63.4643 18.8903C63.1614 19.3081 62.746 19.5138 62.2172 19.5138C61.2729 19.5138 60.6316 18.8217 60.6316 17.8944C60.6316 17.019 61.1836 16.3205 62.146 16.3205C62.6326 16.3205 63.0604 16.5262 63.3037 16.9671L63.7374 16.7096C63.4345 16.1491 62.8527 15.8397 62.146 15.8397C60.8749 15.8397 60.073 16.7439 60.073 17.8936C60.073 19.1127 60.9337 19.9938 62.2048 19.9938ZM64.776 17.9231C64.776 16.7901 65.6375 15.8405 66.9144 15.8405C68.1913 15.8405 69.0345 16.7845 69.0345 17.9119C69.0345 19.0393 68.1797 19.9945 66.9028 19.9945C65.6259 19.9945 64.7768 19.0385 64.7768 17.9231H64.776ZM68.4817 17.9231C68.4817 17.0189 67.8288 16.3213 66.9019 16.3213C65.9751 16.3213 65.3337 17.0133 65.3337 17.9119C65.3337 18.8105 65.9867 19.5137 66.9135 19.5137C67.8404 19.5137 68.4817 18.8153 68.4817 17.9231ZM70.3279 15.9138V18.1742H70.3288C70.3288 19.3646 71.0181 19.9826 72.0451 19.9826C73.0721 19.9826 73.773 19.3415 73.773 18.1288V15.9146H73.2384V18.1974C73.2384 19.0441 72.8114 19.5074 72.0567 19.5074C71.302 19.5074 70.8567 19.0042 70.8567 18.1742V15.9138H70.3279ZM78.351 19.9196L75.8385 16.7271V19.9196H75.3155V15.9138H75.8145L78.2848 19.0497V15.9138H78.8012V19.9196H78.351ZM81.3434 19.9196H81.878V16.4002H83.1846V15.9138H80.0367V16.4002H81.3434V19.9196Z" fill="black"/>
</svg>
