<svg xmlns="http://www.w3.org/2000/svg" xmlns:xlink="http://www.w3.org/1999/xlink" width="40" height="40" viewBox="0 0 40 40">
  <defs>
    <circle id="twitter-a" cx="20" cy="20" r="20"/>
    <path id="twitter-c" d="M20,3.67428571 C19.2642857,4.00057143 18.4734286,4.22114286 17.6434286,4.32028571 C18.4905714,3.81257143 19.1411429,3.00828571 19.4474286,2.05028571 C18.6545714,2.52028571 17.7765714,2.862 16.842,3.046 C16.0934286,2.24857143 15.0268571,1.75 13.8468571,1.75 C11.5805714,1.75 9.74342857,3.58742857 9.74342857,5.85314286 C9.74342857,6.17485714 9.77971429,6.488 9.84971429,6.78828571 C6.43942857,6.61714286 3.416,4.98371429 1.39228571,2.50114286 C1.03914286,3.10714286 0.836857143,3.812 0.836857143,4.564 C0.836857143,5.98771429 1.56114286,7.24342857 2.66228571,7.97942857 C1.98971429,7.958 1.35685714,7.77342857 0.803714286,7.466 L0.803428571,7.51771429 C0.803428571,9.50571429 2.21771429,11.1642857 4.09485714,11.5411429 C3.75057143,11.6348571 3.388,11.6851429 3.01371429,11.6851429 C2.74942857,11.6851429 2.49228571,11.6594286 2.24171429,11.6114286 C2.764,13.2417143 4.27914286,14.428 6.07485714,14.4611429 C4.67057143,15.5617143 2.90114286,16.2174286 0.978857143,16.2174286 C0.647714286,16.2174286 0.321142857,16.198 0,16.1602857 C1.816,17.3245714 3.97257143,18.0037143 6.29,18.0037143 C13.8374286,18.0037143 17.9645714,11.7514286 17.9645714,6.32914286 C17.9645714,6.15114286 17.9605714,5.97428571 17.9525714,5.79828571 C18.7542857,5.21971429 19.45,4.49714286 20,3.67428571"/>
  </defs>
  <g fill="none" fill-rule="evenodd">
    <mask id="twitter-b" fill="#fff">
      <use xlink:href="#twitter-a"/>
    </mask>
    <g fill="#161616" mask="url(#twitter-b)">
      <rect width="40" height="40"/>
    </g>
    <g mask="url(#twitter-b)">
      <g transform="translate(10 10)">
        <mask id="twitter-d" fill="#fff">
          <use xlink:href="#twitter-c"/>
        </mask>
        <use fill="#092A5E" xlink:href="#twitter-c"/>
        <g mask="url(#twitter-d)">
          <rect width="20" height="20" fill="#FFF"/>
        </g>
      </g>
    </g>
  </g>
</svg>
