<?xml version="1.0" standalone="no"?>
<!DOCTYPE svg PUBLIC "-//W3C//DTD SVG 1.0//EN" "http://www.w3.org/TR/2001/REC-SVG-20010904/DTD/svg10.dtd">
<svg xmlns="http://www.w3.org/2000/svg" xmlns:xlink="http://www.w3.org/1999/xlink" id="body_1" width="32" height="20">

<g transform="matrix(0.1658031 0 0 0.1658031 -0 4.9430056)">
    <path d="M73.3615 1.76544L48.1893 59.3717L31.7663 59.3717L19.379 13.3993C 18.6269 10.5677 17.973 9.53029 15.6858 8.33733C 11.9516 6.39419 5.78497 4.57112 0.359375 3.43963L0.359375 3.43963L0.72789 1.76544L27.1639 1.76544C 30.5336 1.76544 33.5628 3.91701 34.3279 7.63903L34.3279 7.63903L40.8701 40.973L57.0387 1.76448L73.3615 1.76448L73.3615 1.76544zM137.71 40.5638C 137.776 25.3597 115.791 24.5221 115.942 17.7303C 115.989 15.6632 118.041 13.4655 122.532 12.9046C 124.758 12.6251 130.892 12.4119 137.849 15.4826L137.849 15.4826L140.578 3.26673C 136.839 1.96522 132.03 0.712708 126.045 0.712708C 110.689 0.712708 99.8816 8.54288 99.7905 19.755C 99.6914 28.0482 107.504 32.676 113.391 35.4317C 119.446 38.2537 121.478 40.0672 121.455 42.5914C 121.412 46.4556 116.625 48.1615 112.152 48.2287C 104.343 48.344 99.8115 46.202 96.1995 44.5912L96.1995 44.5912L93.3835 57.2115C 97.0136 58.8089 103.714 60.2026 110.661 60.2727C 126.983 60.2727 137.659 52.5396 137.71 40.5638zM178.26 59.3717L192.629 59.3717L180.087 1.76544L166.824 1.76544C 163.842 1.76544 161.327 3.43098 160.213 5.99173L160.213 5.99173L136.899 59.3717L153.213 59.3717L156.452 50.7674L176.385 50.7674L178.26 59.3717zM160.925 38.9607L169.102 17.3316L173.809 38.9607L160.925 38.9607zM95.5596 1.76544L82.7126 59.3717L67.1769 59.3717L80.0288 1.76544L95.5596 1.76544z" stroke="none" fill="#1434CB" fill-rule="nonzero" />
</g>
</svg>