<svg xmlns="http://www.w3.org/2000/svg" xmlns:xlink="http://www.w3.org/1999/xlink" width="40" height="40" viewBox="0 0 40 40">
  <defs>
    <circle id="youtube-a" cx="20" cy="20" r="20"/>
    <path id="youtube-c" d="M7.93522581,12.6276129 L7.93419355,7.008 L13.3383226,9.8276129 L7.93522581,12.6276129 Z M19.8002581,6.03458065 C19.8002581,6.03458065 19.6046452,4.65625806 19.0051613,4.04929032 C18.2446452,3.25290323 17.392,3.24877419 17.0012903,3.20232258 C14.2023226,3 10.004129,3 10.004129,3 L9.9956129,3 C9.9956129,3 5.79741935,3 2.99870968,3.20232258 C2.60774194,3.24877419 1.7556129,3.25290323 0.994580645,4.04929032 C0.395096774,4.65625806 0.2,6.03458065 0.2,6.03458065 C0.2,6.03458065 0,7.65290323 0,9.27148387 L0,10.7889032 C0,12.4072258 0.2,14.0258065 0.2,14.0258065 C0.2,14.0258065 0.395096774,15.403871 0.994580645,16.0108387 C1.7556129,16.8074839 2.75483871,16.7821935 3.2,16.8658065 C4.8,17.0190968 10,17.0665806 10,17.0665806 C10,17.0665806 14.2023226,17.0603871 17.0012903,16.8580645 C17.392,16.8113548 18.2446452,16.8074839 19.0051613,16.0108387 C19.6046452,15.403871 19.8002581,14.0258065 19.8002581,14.0258065 C19.8002581,14.0258065 20,12.4072258 20,10.7889032 L20,9.27148387 C20,7.65290323 19.8002581,6.03458065 19.8002581,6.03458065 L19.8002581,6.03458065 Z"/>
  </defs>
  <g fill="none" fill-rule="evenodd">
    <mask id="youtube-b" fill="#fff">
      <use xlink:href="#youtube-a"/>
    </mask>
    <g fill="#161616" mask="url(#youtube-b)">
      <rect width="40" height="40"/>
    </g>
    <g mask="url(#youtube-b)">
      <g transform="translate(10 10)">
        <mask id="youtube-d" fill="#fff">
          <use xlink:href="#youtube-c"/>
        </mask>
        <use fill="#092A5E" xlink:href="#youtube-c"/>
        <g mask="url(#youtube-d)">
          <rect width="20" height="20" fill="#FFF"/>
        </g>
      </g>
    </g>
  </g>
</svg>
